# xmcd CD database file
#
# Track frame offsets:
#	150
#	21953
#	50528
#	75558
#	100501
#	128530
#	152747
#	171475
#	206921
#	227013
#	248026
#
# Disc length: 3582 seconds
#
# Revision: 0
# Processed by: cddbd v1.5.1PL0 Copyright (c) Steve Scherf et al.
# Submitted via: CDex 1.50
#
DISCID=860dfc0b
DTITLE=Hector Martignon - New Morning Mambo
DYEAR=1997
DGENRE=Jazz
TTITLE0=Blues for leticia
TTITLE1=Sorrindo
TTITLE2=Prelude No.8 inEb minor
TTITLE3=unwritten postcards
TTITLE4=new morning mambo
TTITLE5=as heard
TTITLE6=benitez sez
TTITLE7=the foreign affair
TTITLE8=my one and only love
TTITLE9=la propuesta
TTITLE10=some day my spring will come
EXTD=YEAR: 1997
EXTT0=
EXTT1=
EXTT2=
EXTT3=
EXTT4=
EXTT5=
EXTT6=
EXTT7=
EXTT8=
EXTT9=
EXTT10=
PLAYORDER=
